<?xml version="1.0" encoding="utf-8"?>
<svg version="1.1" id="Layer_1"
xmlns="http://www.w3.org/2000/svg"
xmlns:xlink="http://www.w3.org/1999/xlink"
width="393px" height="295px"
xml:space="preserve">
<g id="PathID_1" transform="matrix(0.705352, 0, 0, 0.705352, 75.6, 197.4)" opacity="1">
<path style="fill:#555555;fill-opacity:1" d="M26.15 -8.1L11.6 -8.1L7.2 0L-0.65 0L20.1 -36.65L28.55 -36.65L34.5 0L27.35 0L26.15 -8.1M25.15 -14.25L23.05 -28.95L15 -14.25L25.15 -14.25" />
</g>
<g id="PathID_2" transform="matrix(0.705352, 0, 0, 0.705352, 75.6, 197.4)" opacity="1">
</g>
<g id="PathID_3" transform="matrix(0.705352, 0, 0, 0.705352, 100.55, 197.4)" opacity="1">
<path style="fill:#555555;fill-opacity:1" d="M7.65 -26.55L14.45 -26.55L13.8 -23.05Q16.35 -25.3 18.55 -26.25Q20.8 -27.2 23.25 -27.2Q26.55 -27.2 28.45 -25.3Q30.35 -23.4 30.35 -20.3Q30.35 -18.9 29.5 -15L26.3 0L19.15 0L22.35 -15.05Q23.05 -18.4 23.1 -19.05Q23.1 -20.45 22.25 -21.25Q21.45 -22.05 20 -22.05Q18.4 -22.05 16.45 -20.7Q14.5 -19.4 13.35 -17.2Q12.55 -15.65 11.55 -10.9L9.3 0L2.15 0L7.65 -26.55" />
</g>
<g id="PathID_4" transform="matrix(0.705352, 0, 0, 0.705352, 100.55, 197.4)" opacity="1">
</g>
<g id="PathID_5" transform="matrix(0.705352, 0, 0, 0.705352, 121.45, 197.4)" opacity="1">
<path style="fill:#555555;fill-opacity:1" d="M9.7 -36.65L16.85 -36.65L15.45 -30.15L8.3 -30.15L9.7 -36.65M7.55 -26.55L14.7 -26.55L9.2 0L2.05 0L7.55 -26.55" />
</g>
<g id="PathID_6" transform="matrix(0.705352, 0, 0, 0.705352, 121.45, 197.4)" opacity="1">
</g>
<g id="PathID_7" transform="matrix(0.705352, 0, 0, 0.705352, 130.3, 197.4)" opacity="1">
<path style="fill:#555555;fill-opacity:1" d="M7.35 -26.55L14.1 -26.55L13.45 -23.3Q17.4 -27.2 21.75 -27.2Q24.8 -27.2 26.4 -25.9Q28.05 -24.65 28.5 -22.45Q29.9 -24.45 32.45 -25.8Q35.05 -27.2 37.85 -27.2Q41.05 -27.2 42.8 -25.45Q44.6 -23.75 44.6 -20.9Q44.55 -19.55 43.85 -16.2L40.4 0L33.25 0L36.65 -16.2L37.35 -19.65Q37.35 -20.75 36.65 -21.4Q36 -22.05 34.65 -22.05Q31.95 -22.05 29.8 -19.2Q28.3 -17.15 27.2 -12L24.7 0L17.55 0L20.9 -16.05Q21.45 -18.8 21.45 -19.65Q21.45 -20.7 20.7 -21.35Q20 -22.05 18.75 -22.05Q17.6 -22.05 16.3 -21.35Q15.05 -20.65 14.1 -19.4Q13.2 -18.15 12.5 -16.25Q12.2 -15.35 11.55 -12.15L9 0L1.85 0L7.35 -26.55" />
</g>
<g id="PathID_8" transform="matrix(0.705352, 0, 0, 0.705352, 130.3, 197.4)" opacity="1">
</g>
<g id="PathID_9" transform="matrix(0.705352, 0, 0, 0.705352, 161.25, 197.4)" opacity="1">
<path style="fill:#555555;fill-opacity:1" d="M27.9 -11.05L9.95 -11.05L9.9 -10.4Q9.9 -7.75 11.4 -6.1Q12.9 -4.5 15.1 -4.5Q18.65 -4.5 20.65 -8.2L27.1 -7.1Q25.2 -3.2 22.05 -1.25Q18.95 0.65 15.05 0.65Q9.7 0.65 6.35 -2.7Q3 -6.1 3 -11.7Q3 -17.15 6 -21.4Q10.1 -27.2 17.75 -27.2Q22.65 -27.2 25.5 -24.15Q28.4 -21.15 28.4 -15.7Q28.4 -13.1 27.9 -11.05M21.85 -15.45L21.85 -16.15Q21.85 -19.1 20.5 -20.55Q19.2 -22.05 17 -22.05Q14.8 -22.05 13 -20.35Q11.25 -18.7 10.65 -15.45L21.85 -15.45" />
</g>
<g id="PathID_10" transform="matrix(0.705352, 0, 0, 0.705352, 161.25, 197.4)" opacity="1">
</g>
<g id="PathID_11" transform="matrix(0.674889, 0, 0, 0.674889, -61.3, -200.35)" opacity="1">
<path style="fill:#73A4FF;fill-opacity:1" d="M231.1 509.15Q228.5 482.1 225.35 450.75Q222.15 419.35 219.55 392.2Q216.9 365.05 217 359.2Q236.4 367.3 254.4 372.45Q272.35 377.6 289.15 381.85Q305.95 386.1 321.75 390.5Q337.5 394.9 352.25 404.8Q352.4 405.2 352.45 423.25L352.5 462.35L352.5 501.4Q352.55 519.45 352.5 523.1Q345.5 523.75 332.25 525.8L302.6 530.6L268.2 536.3Q250.2 539.3 233.7 541.8Q233.75 536.15 231.1 509.15" />
</g>
<g id="PathID_12" transform="matrix(0.674889, 0, 0, 0.674889, -61.3, -200.35)" opacity="1">
</g>
<g id="PathID_13" transform="matrix(0.674889, 0, 0, 0.674889, -38.65, -208.5)" opacity="1">
<path style="fill:#60E245;fill-opacity:1" d="M363.9 522.55L375.2 521.8Q380.9 521.45 386.8 520.95Q392.7 520.45 399.05 519.7L398.55 531.6L397.6 549.5L396.7 567.35Q396.25 575.8 396.2 579.25L386.15 581.4Q381.7 582.3 377 583.05L366.5 584.6L352.6 586.7L352.65 523.4Q358.35 522.9 363.9 522.55" />
</g>
<g id="PathID_14" transform="matrix(0.674889, 0, 0, 0.674889, -38.65, -208.5)" opacity="1">
</g>
<g id="PathID_15" transform="matrix(0.836214, 0, 0, 0.836214, -144.35, -308.9)" opacity="1">
<path style="fill:#FFFFFF;fill-opacity:1" d="M352.55 480.35L352.55 497.65L352.55 514L352.6 523.5Q348.15 523.75 341.2 524.65L327.65 526.55L316.3 528.3L311.6 529.1L305.35 455.9L310.85 456.65Q316.35 457.45 324 459Q331.6 460.5 339.6 462.8Q347.6 465.1 352.6 468.1L352.55 480.35" />
</g>
<g id="PathID_16" transform="matrix(0.836214, 0, 0, 0.836214, -144.35, -308.9)" opacity="1">
</g>
<g id="PathID_17" transform="matrix(0.674889, 0, 0, 0.674889, -71.9, -212.45)" opacity="1">
<path style="fill:#FF895A;fill-opacity:1" d="M399.55 502.6L400.5 472.3L401.45 442L401.95 424.95Q408.95 428.25 415.45 431.95L428.5 439.3Q435.05 442.95 442 446.35Q448.95 449.75 456.9 452.5Q456.85 454.8 455.65 464.15L453.05 484.35Q451.6 495.15 450.45 504.5Q449.25 513.9 449.2 516.25Q445.25 516.45 438.6 516.95L424.6 517.95L410.35 519Q403.45 519.5 399.05 519.7L399.55 502.6" />
</g>
<g id="PathID_18" transform="matrix(0.674889, 0, 0, 0.674889, -71.9, -212.45)" opacity="1">
</g>
<g id="PathID_19" transform="matrix(0.705352, 0, 0, 0.705352, 186.35, 219.4)" opacity="1">
<path style="fill:#555555;fill-opacity:1" d="M9.65 0L2.1 0L9.75 -36.65L24.65 -36.65Q28.6 -36.65 30.9 -35.7Q33.25 -34.75 34.6 -32.55Q35.95 -30.4 35.95 -27.4Q35.95 -24.65 34.85 -22Q33.8 -19.4 32.2 -17.8Q30.65 -16.25 28.85 -15.4Q27.05 -14.6 24 -14.2Q22.25 -13.95 17.35 -13.95L12.55 -13.95L9.65 0M13.85 -20.1L16.15 -20.1Q22.1 -20.1 24.1 -20.8Q26.1 -21.55 27.25 -23.2Q28.4 -24.85 28.4 -26.8Q28.4 -28.1 27.8 -28.95Q27.2 -29.8 26.15 -30.2Q25.1 -30.6 21.4 -30.6L16 -30.6L13.85 -20.1" />
</g>
<g id="PathID_20" transform="matrix(0.705352, 0, 0, 0.705352, 186.35, 219.4)" opacity="1">
</g>
<g id="PathID_21" transform="matrix(0.705352, 0, 0, 0.705352, 209.25, 219.4)" opacity="1">
<path style="fill:#555555;fill-opacity:1" d="M27.9 -11.05L9.95 -11.05L9.9 -10.4Q9.9 -7.75 11.4 -6.1Q12.9 -4.5 15.1 -4.5Q18.65 -4.5 20.65 -8.2L27.1 -7.1Q25.2 -3.2 22.05 -1.25Q18.95 0.65 15.05 0.65Q9.7 0.65 6.35 -2.7Q3 -6.1 3 -11.7Q3 -17.15 6 -21.4Q10.1 -27.2 17.75 -27.2Q22.65 -27.2 25.5 -24.15Q28.4 -21.15 28.4 -15.7Q28.4 -13.1 27.9 -11.05M21.85 -15.45L21.85 -16.15Q21.85 -19.1 20.5 -20.55Q19.2 -22.05 17 -22.05Q14.8 -22.05 13 -20.35Q11.25 -18.7 10.65 -15.45L21.85 -15.45" />
</g>
<g id="PathID_22" transform="matrix(0.705352, 0, 0, 0.705352, 209.25, 219.4)" opacity="1">
</g>
<g id="PathID_23" transform="matrix(0.705352, 0, 0, 0.705352, 228.2, 219.4)" opacity="1">
<path style="fill:#555555;fill-opacity:1" d="M26.55 0L19.8 0L20.4 -2.85Q18.45 -0.95 16.55 -0.15Q14.65 0.65 12.3 0.65Q8.15 0.65 5.6 -2.15Q3.05 -4.95 3.05 -10.45Q3.05 -16.85 6.65 -22Q10.3 -27.2 16.3 -27.2Q21.7 -27.2 24.4 -22.9L27.45 -36.65L34.6 -36.65L26.55 0M10.05 -10.8Q10.05 -7.95 11.5 -6.35Q12.95 -4.75 15.05 -4.75Q17 -4.75 18.7 -6.05Q20.4 -7.4 21.4 -10.15Q22.45 -12.9 22.45 -15.45Q22.45 -18.3 20.9 -20.1Q19.35 -21.9 17.3 -21.9Q14.1 -21.9 12.05 -18.35Q10.05 -14.85 10.05 -10.8" />
</g>
<g id="PathID_24" transform="matrix(0.705352, 0, 0, 0.705352, 228.2, 219.4)" opacity="1">
</g>
<g id="PathID_25" transform="matrix(0.705352, 0, 0, 0.705352, 249.1, 219.4)" opacity="1">
<path style="fill:#555555;fill-opacity:1" d="M9.7 -36.65L16.85 -36.65L15.45 -30.15L8.3 -30.15L9.7 -36.65M7.55 -26.55L14.7 -26.55L9.2 0L2.05 0L7.55 -26.55" />
</g>
<g id="PathID_26" transform="matrix(0.705352, 0, 0, 0.705352, 249.1, 219.4)" opacity="1">
</g>
<g id="PathID_27" transform="matrix(0.705352, 0, 0, 0.705352, 257.95, 219.4)" opacity="1">
<path style="fill:#555555;fill-opacity:1" d="M12.2 -19.05L5.2 -19.6Q6.35 -23.15 9.35 -25.15Q12.35 -27.2 17.25 -27.2Q22.4 -27.2 24.85 -25.1Q27.3 -23.05 27.3 -20.05Q27.3 -18.85 27.05 -17.5Q26.85 -16.15 25.6 -10.4Q24.55 -5.65 24.55 -3.75Q24.55 -2.05 25.15 0L18.2 0Q17.75 -1.45 17.65 -3Q16.05 -1.25 14 -0.3Q11.95 0.65 9.9 0.65Q6.6 0.65 4.45 -1.5Q2.3 -3.65 2.3 -7.05Q2.3 -10.85 4.65 -13.1Q7 -15.4 13.1 -15.9Q18.2 -16.3 19.95 -16.95Q20.4 -18.45 20.4 -19.35Q20.4 -20.5 19.45 -21.25Q18.55 -22.05 16.7 -22.05Q14.8 -22.05 13.65 -21.25Q12.55 -20.45 12.2 -19.05M19 -12.4Q18.35 -12.2 17.25 -12.05Q11.85 -11.4 10.2 -10.15Q9.05 -9.25 9.05 -7.7Q9.05 -6.45 9.95 -5.6Q10.85 -4.75 12.3 -4.75Q13.95 -4.75 15.35 -5.5Q16.8 -6.3 17.5 -7.55Q18.25 -8.8 18.8 -11.4L19 -12.4" />
</g>
<g id="PathID_28" transform="matrix(0.705352, 0, 0, 0.705352, 257.95, 219.4)" opacity="1">
</g>
<g id="PathID_29" transform="matrix(0.705352, 0, 0, 0.705352, 276.85, 219.4)" opacity="1">
<path style="fill:#555555;fill-opacity:1" d="M1.95 0L9.6 -36.65L16.75 -36.65L12.75 -17.55L22.15 -26.55L31.5 -26.55L20.8 -16.95L26.55 0L19.35 0L15.65 -12.3L10.75 -7.95L9.1 0L1.95 0" />
</g>
<g id="PathID_30" transform="matrix(0.705352, 0, 0, 0.705352, 276.85, 219.4)" opacity="1">
</g>
<g id="PathID_31" transform="matrix(0.705352, 0, 0, 0.705352, 295.8, 219.4)" opacity="1">
<path style="fill:#555555;fill-opacity:1" d="M7.8 -26.55L15 -26.55L11.45 -10.8Q10.8 -8 10.8 -7.3Q10.8 -6.15 11.55 -5.3Q12.35 -4.5 13.55 -4.5Q14.4 -4.5 15.2 -4.85Q16.05 -5.2 16.95 -5.95Q17.85 -6.75 18.55 -7.7Q19.25 -8.7 19.85 -10.3Q20.25 -11.5 20.8 -13.85L23.65 -26.55L30.8 -26.55L24.8 0L18.1 0L18.9 -3.55Q14.85 0.65 10.05 0.65Q7.05 0.65 5.3 -1.2Q3.55 -3.1 3.55 -6.25Q3.55 -7.65 4.5 -11.75L7.8 -26.55" />
</g>
<g id="PathID_32" transform="matrix(0.705352, 0, 0, 0.705352, 295.8, 219.4)" opacity="1">
</g>
<g id="PathID_33" transform="matrix(1.26744, 0, 0, 1.26744, 188.25, 127.5)" opacity="1">
<path style="fill:#737480;fill-opacity:0.698039" d="M0 -29Q-0.4 -29 -0.7 -29.3L-1 -30L-1 -42L-0.7 -42.7L0 -43L0.7 -42.7L1 -42L1 -30L0.7 -29.3Q0.4 -29 0 -29M0.7 -18.7L1 -18L1 -6L0.7 -5.3Q0.4 -5 0 -5Q-0.4 -5 -0.7 -5.3L-1 -6L-1 -18L-0.7 -18.7L0 -19L0.7 -18.7M-1 6L-0.7 5.3Q-0.4 5 0 5Q0.4 5 0.7 5.3L1 6L1 18L0.7 18.7L0 19L-0.7 18.7L-1 18L-1 6M-0.7 29.3Q-0.4 29 0 29Q0.4 29 0.7 29.3L1 30L1 42L0.7 42.7L0 43L-0.7 42.7L-1 42L-1 30L-0.7 29.3" />
</g>
<g id="PathID_34" transform="matrix(1.26744, 0, 0, 1.26744, 188.25, 127.5)" opacity="1">
</g>
<g id="PathID_35" transform="matrix(-0.64968, -0.690733, 0.690733, -0.64968, 245.4, 226.6)" opacity="1">
<path style="fill:#767780;fill-opacity:1" d="M52.7 -51.3L-51.3 52.7Q-51.6 53 -52 53L-52.7 52.7L-53 52L-52.7 51.3L51.3 -52.7Q51.6 -53 52 -53L52.7 -52.7L53 -52L52.7 -51.3" />
</g>
<g id="PathID_36" transform="matrix(-0.64968, -0.690733, 0.690733, -0.64968, 245.4, 226.6)" opacity="1">
</g>
<g id="PathID_37" transform="matrix(0.943627, 0, 0, 0.943627, 277.5, 153)" opacity="1">
<path style="fill:#000000;fill-opacity:0.698039" d="M12.75 -9.15Q12.75 -1.4 7.6 4.2Q2.25 9.9 -5.5 10.55L-6.75 10.55Q-12.95 10.55 -17.7 6.25Q-22.4 2 -22.85 -4.4L-22.85 -5.4Q-22.85 -10.55 -19.3 -14.4Q-15.8 -18.2 -10.55 -18.65L-9.75 -18.65Q-5.4 -18.65 -2.3 -15.7Q0.9 -12.8 1.3 -8.4L1.3 -7.8Q1.3 -4.15 -1.2 -1.55Q-3.6 1.1 -7.15 1.35L-7.8 1.35Q-10.75 1.35 -12.95 -0.7Q-15.2 -2.75 -15.45 -5.75L-15.45 -6.2Q-15.45 -8.8 -13.75 -10.65Q-12 -12.5 -9.5 -12.7L-9.05 -12.7Q-6.9 -12.7 -5.2 -11.25Q-3.6 -9.75 -3.45 -7.6Q-3.35 -6.9 -3.9 -6.3Q-4.4 -5.65 -5.15 -5.65Q-5.85 -5.55 -6.45 -6Q-7 -6.55 -7.1 -7.35Q-7.15 -8.05 -7.7 -8.6Q-8.25 -9.15 -9.05 -9.15L-9.2 -9.15Q-10.3 -9.05 -11.1 -8.15Q-11.8 -7.35 -11.8 -6.2L-11.8 -6Q-11.7 -4.4 -10.55 -3.35Q-9.4 -2.3 -7.8 -2.3L-7.45 -2.3Q-5.3 -2.45 -3.8 -4.05Q-2.35 -5.65 -2.35 -7.8L-2.35 -8.15Q-2.65 -11.1 -4.75 -13.05Q-6.9 -15 -9.75 -15L-10.3 -15Q-14.1 -14.65 -16.6 -11.9Q-19.2 -9.15 -19.2 -5.4L-19.2 -4.7Q-18.85 0.3 -15.2 3.6Q-11.6 6.9 -6.75 6.9L-5.75 6.9Q0.55 6.45 4.85 1.7Q9.1 -2.9 9.1 -9.15L9.1 -10.4Q8.5 -18.5 2.55 -23.9Q-3.35 -29.45 -11.45 -29.45L-12.95 -29.35Q-23.2 -28.55 -30.25 -20.95Q-37.15 -13.5 -37.15 -3.25L-37.1 -1.3Q-36.1 11.8 -26.5 20.6Q-16.95 29.4 -4.05 29.4L-1.55 29.3Q14.9 28.05 26.1 15.95Q37.25 3.95 37.25 -12.45L37.15 -15.65Q37.05 -16.35 37.6 -16.95Q38.05 -17.5 38.75 -17.6Q39.55 -17.6 40.1 -17.15Q40.7 -16.6 40.7 -15.9L40.8 -12.45Q40.8 5.3 28.8 18.45Q16.6 31.55 -1.3 32.95L-4.05 33.05Q-18.4 33.05 -29 23.25Q-39.65 13.4 -40.75 -1.05L-40.8 -3.25Q-40.8 -14.9 -32.9 -23.45Q-25 -32.1 -13.25 -33L-11.45 -33Q-2 -33 5 -26.6Q11.95 -20.1 12.65 -10.65L12.75 -9.15" />
</g>
<g id="PathID_38" transform="matrix(0.943627, 0, 0, 0.943627, 277.5, 153)" opacity="1">
</g>
<g id="PathID_39" transform="matrix(-0.545944, -0.580442, 0.580442, -0.545944, 123.65, 206.6)" opacity="1">
<path style="fill:#767780;fill-opacity:1" d="M52.7 -51.3L-51.3 52.7Q-51.6 53 -52 53L-52.7 52.7L-53 52L-52.7 51.3L51.3 -52.7Q51.6 -53 52 -53L52.7 -52.7L53 -52L52.7 -51.3" />
</g>
<g id="PathID_40" transform="matrix(-0.545944, -0.580442, 0.580442, -0.545944, 123.65, 206.6)" opacity="1">
</g>
</svg>
